Süha (Cem Davran) is a middle aged man who is a lecturer at a university. He travels to an Alevi village in Anatolia as part of an academic study. While driving on a lonely country road on a rainy night Süha sees a coffin soar through the night. He hits the brakes, but the car crashes into the wall of the village cemetery. When he opens his eyes, he finds himself inside the cemetery, where he will take a harrowing journey towards both Turkey’s and his own past. Adapted from the novel of the same name by Ahmet Ümit. -- todayszaman.com

dvdrip
General 
Complete name : Bir ses böler geceyi AKA A Noise in the Night (Ersan Arsever, 2012)A Noise in the Night.avi 
Format : AVI 
Format/Info : Audio Video Interleave 
File size : 1.35 GiB 
Duration : 1h 37mn 
Overall bit rate : 1 991 Kbps 
Writing application : VirtualDubMod 1.5.10.2 (build 2540/release) 
Writing library : VirtualDubMod build 2540/release 

Video 
ID : 0 
Format : MPEG-4 Visual 
Format profile : Advanced Simple@L5 
Format settings, BVOP : 2 
Format settings, QPel : No 
Format settings, GMC : No warppoints 
Format settings, Matrix : Default (MPEG) 
Codec ID : XVID 
Codec ID/Hint : XviD 
Duration : 1h 37mn 
Bit rate : 1 789 Kbps 
Width : 704 pixels 
Height : 288 pixels 
Display aspect ratio : 2.40:1 
Frame rate : 25.000 fps 
Color space : YUV 
Chroma subsampling : 4:2:0 
Bit depth : 8 bits 
Scan type : Progressive 
Compression mode : Lossy 
Bits/(Pixel*Frame) : 0.353 
Stream size : 1.22 GiB (90%) 
Writing library : XviD 1.2.1 (UTC 2008-12-04) 

Audio 
ID : 1 
Format : AC-3 
Format/Info : Audio Coding 3 
Mode extension : CM (complete main) 
Codec ID : 2000 
Duration : 1h 37mn 
Bit rate mode : Constant 
Bit rate : 192 Kbps 
Channel(s) : 2 channels 
Channel positions : Front: L R 
Sampling rate : 48.0 KHz 
Bit depth : 16 bits 
Compression mode : Lossy 
Stream size : 134 MiB (10%) 
Alignment : Split accross interleaves 
Interleave, duration : 40 ms (1.00 video frame) 
Interleave, preload duration : 500 ms

My rip.